<mxfile host="app.diagrams.net" modified="2023-05-11T14:55:21.846Z" agent="Mozilla/5.0 (X11; Ubuntu; Linux x86_64; rv:109.0) Gecko/20100101 Firefox/113.0" etag="mzfrtmcnVoAcm_zt6z1B" version="21.2.4" type="device">
  <diagram name="Page-1" id="b3_rmUjKcA8r_ARUdAtH">
    <mxGraphModel dx="1674" dy="1920" grid="1" gridSize="10" guides="1" tooltips="1" connect="1" arrows="1" fold="1" page="1" pageScale="1" pageWidth="827" pageHeight="1169" math="0" shadow="0">
      <root>
        <mxCell id="0" />
        <mxCell id="1" parent="0" />
        <mxCell id="Bi5-bl8IuxDmXKODMzO1-6" value="" style="shape=flexArrow;endArrow=classic;html=1;rounded=0;sketch=1;hachureGap=4;jiggle=2;curveFitting=1;fontFamily=Architects Daughter;fontSource=https%3A%2F%2Ffonts.googleapis.com%2Fcss%3Ffamily%3DArchitects%2BDaughter;fontSize=16;exitX=0;exitY=0.75;exitDx=0;exitDy=0;entryX=1.033;entryY=0.917;entryDx=0;entryDy=0;entryPerimeter=0;" edge="1" parent="1" source="243QyRulBXpM2tCjIqUp-44" target="243QyRulBXpM2tCjIqUp-4">
          <mxGeometry width="50" height="50" relative="1" as="geometry">
            <mxPoint x="220" y="530" as="sourcePoint" />
            <mxPoint x="220" y="520" as="targetPoint" />
          </mxGeometry>
        </mxCell>
        <mxCell id="Bi5-bl8IuxDmXKODMzO1-5" value="" style="shape=flexArrow;endArrow=classic;html=1;rounded=0;sketch=1;hachureGap=4;jiggle=2;curveFitting=1;fontFamily=Architects Daughter;fontSource=https%3A%2F%2Ffonts.googleapis.com%2Fcss%3Ffamily%3DArchitects%2BDaughter;fontSize=16;exitX=1;exitY=0.75;exitDx=0;exitDy=0;entryX=0;entryY=0.25;entryDx=0;entryDy=0;" edge="1" parent="1" source="243QyRulBXpM2tCjIqUp-4" target="243QyRulBXpM2tCjIqUp-44">
          <mxGeometry width="50" height="50" relative="1" as="geometry">
            <mxPoint x="815" y="479.5" as="sourcePoint" />
            <mxPoint x="480" y="479.5" as="targetPoint" />
          </mxGeometry>
        </mxCell>
        <mxCell id="Bi5-bl8IuxDmXKODMzO1-1" value="" style="shape=flexArrow;endArrow=classic;html=1;rounded=0;sketch=1;hachureGap=4;jiggle=2;curveFitting=1;fontFamily=Architects Daughter;fontSource=https%3A%2F%2Ffonts.googleapis.com%2Fcss%3Ffamily%3DArchitects%2BDaughter;fontSize=16;exitX=0.967;exitY=0.083;exitDx=0;exitDy=0;exitPerimeter=0;" edge="1" parent="1" source="243QyRulBXpM2tCjIqUp-4">
          <mxGeometry width="50" height="50" relative="1" as="geometry">
            <mxPoint x="260" y="126.25" as="sourcePoint" />
            <mxPoint x="1280" y="110" as="targetPoint" />
          </mxGeometry>
        </mxCell>
        <mxCell id="243QyRulBXpM2tCjIqUp-49" value="" style="endArrow=none;html=1;rounded=0;entryX=0.5;entryY=1;entryDx=0;entryDy=0;sketch=1;curveFitting=1;jiggle=2;" parent="1" edge="1">
          <mxGeometry width="50" height="50" relative="1" as="geometry">
            <mxPoint x="200" y="590" as="sourcePoint" />
            <mxPoint x="199.5" y="560" as="targetPoint" />
            <Array as="points">
              <mxPoint x="200" y="600" />
            </Array>
          </mxGeometry>
        </mxCell>
        <mxCell id="0fuMdFuiWBrqTVu0z_TD-1" value="Client" style="rounded=0;whiteSpace=wrap;html=1;rotation=0;fillColor=#f8cecc;strokeColor=#b85450;sketch=1;curveFitting=1;jiggle=2;" parent="1" vertex="1">
          <mxGeometry x="80" y="-40" width="240" height="80" as="geometry" />
        </mxCell>
        <mxCell id="243QyRulBXpM2tCjIqUp-1" value="API d&#39;Authentification" style="rounded=0;whiteSpace=wrap;html=1;rotation=0;fillColor=#e1d5e7;strokeColor=#9673a6;sketch=1;curveFitting=1;jiggle=2;" parent="1" vertex="1">
          <mxGeometry x="440" y="-40" width="240" height="80" as="geometry" />
        </mxCell>
        <mxCell id="243QyRulBXpM2tCjIqUp-2" value="Api de gestion d&#39;utilisateurs" style="rounded=0;whiteSpace=wrap;html=1;rotation=0;fillColor=#d5e8d4;strokeColor=#82b366;sketch=1;curveFitting=1;jiggle=2;" parent="1" vertex="1">
          <mxGeometry x="1160" y="-40" width="240" height="80" as="geometry" />
        </mxCell>
        <mxCell id="243QyRulBXpM2tCjIqUp-6" value="" style="rounded=1;whiteSpace=wrap;html=1;fillColor=#e1d5e7;strokeColor=#9673a6;sketch=1;curveFitting=1;jiggle=2;" parent="1" vertex="1">
          <mxGeometry x="545" y="240" width="30" height="160" as="geometry" />
        </mxCell>
        <mxCell id="243QyRulBXpM2tCjIqUp-7" value="Middleware d&#39;Authentification" style="rounded=0;whiteSpace=wrap;html=1;rotation=0;fillColor=#fff2cc;strokeColor=#d6b656;sketch=1;curveFitting=1;jiggle=2;" parent="1" vertex="1">
          <mxGeometry x="800" y="-40" width="240" height="80" as="geometry" />
        </mxCell>
        <mxCell id="243QyRulBXpM2tCjIqUp-8" value="" style="endArrow=none;html=1;rounded=0;entryX=0.5;entryY=1;entryDx=0;entryDy=0;exitX=0.5;exitY=0;exitDx=0;exitDy=0;sketch=1;curveFitting=1;jiggle=2;" parent="1" source="243QyRulBXpM2tCjIqUp-6" target="243QyRulBXpM2tCjIqUp-1" edge="1">
          <mxGeometry width="50" height="50" relative="1" as="geometry">
            <mxPoint x="560" y="200" as="sourcePoint" />
            <mxPoint x="559.5" y="160" as="targetPoint" />
          </mxGeometry>
        </mxCell>
        <mxCell id="243QyRulBXpM2tCjIqUp-11" value="" style="endArrow=none;html=1;rounded=0;entryX=0.5;entryY=1;entryDx=0;entryDy=0;sketch=1;curveFitting=1;jiggle=2;" parent="1" source="243QyRulBXpM2tCjIqUp-23" target="243QyRulBXpM2tCjIqUp-7" edge="1">
          <mxGeometry width="50" height="50" relative="1" as="geometry">
            <mxPoint x="920" y="560" as="sourcePoint" />
            <mxPoint x="920" y="80" as="targetPoint" />
          </mxGeometry>
        </mxCell>
        <mxCell id="243QyRulBXpM2tCjIqUp-15" value="" style="endArrow=none;html=1;rounded=0;entryX=0.5;entryY=1;entryDx=0;entryDy=0;sketch=1;curveFitting=1;jiggle=2;" parent="1" source="243QyRulBXpM2tCjIqUp-44" target="243QyRulBXpM2tCjIqUp-2" edge="1">
          <mxGeometry width="50" height="50" relative="1" as="geometry">
            <mxPoint x="1279.5" y="560" as="sourcePoint" />
            <mxPoint x="1279.5" y="80" as="targetPoint" />
          </mxGeometry>
        </mxCell>
        <mxCell id="243QyRulBXpM2tCjIqUp-17" value="" style="endArrow=none;html=1;rounded=0;sketch=1;curveFitting=1;jiggle=2;" parent="1" edge="1">
          <mxGeometry width="50" height="50" relative="1" as="geometry">
            <mxPoint x="200" y="80" as="sourcePoint" />
            <mxPoint x="200" y="40" as="targetPoint" />
          </mxGeometry>
        </mxCell>
        <mxCell id="243QyRulBXpM2tCjIqUp-20" value="" style="endArrow=none;html=1;rounded=0;sketch=1;curveFitting=1;jiggle=2;" parent="1" edge="1">
          <mxGeometry width="50" height="50" relative="1" as="geometry">
            <mxPoint x="559.5" y="430" as="sourcePoint" />
            <mxPoint x="559.5" y="400" as="targetPoint" />
            <Array as="points">
              <mxPoint x="560" y="690" />
            </Array>
          </mxGeometry>
        </mxCell>
        <mxCell id="243QyRulBXpM2tCjIqUp-24" value="" style="endArrow=none;html=1;rounded=0;entryX=0.5;entryY=1;entryDx=0;entryDy=0;sketch=1;curveFitting=1;jiggle=2;" parent="1" source="243QyRulBXpM2tCjIqUp-42" target="243QyRulBXpM2tCjIqUp-23" edge="1">
          <mxGeometry width="50" height="50" relative="1" as="geometry">
            <mxPoint x="920" y="560" as="sourcePoint" />
            <mxPoint x="920" y="40" as="targetPoint" />
          </mxGeometry>
        </mxCell>
        <mxCell id="243QyRulBXpM2tCjIqUp-23" value="" style="rounded=1;whiteSpace=wrap;html=1;fillColor=#fff2cc;strokeColor=#d6b656;sketch=1;curveFitting=1;jiggle=2;" parent="1" vertex="1">
          <mxGeometry x="905" y="80" width="30" height="160" as="geometry" />
        </mxCell>
        <mxCell id="243QyRulBXpM2tCjIqUp-25" value="&lt;div&gt;Requête vers l&#39;API de gestion sans token JWT&lt;/div&gt;" style="text;html=1;strokeColor=none;fillColor=none;align=center;verticalAlign=middle;whiteSpace=wrap;rounded=0;sketch=1;curveFitting=1;jiggle=2;" parent="1" vertex="1">
          <mxGeometry x="250" y="88.75" width="255" height="30" as="geometry" />
        </mxCell>
        <mxCell id="243QyRulBXpM2tCjIqUp-26" value="" style="shape=umlActor;verticalLabelPosition=bottom;verticalAlign=top;html=1;outlineConnect=0;strokeWidth=5;sketch=1;curveFitting=1;jiggle=2;" parent="1" vertex="1">
          <mxGeometry x="185" y="620" width="30" height="60" as="geometry" />
        </mxCell>
        <mxCell id="243QyRulBXpM2tCjIqUp-28" value="" style="ellipse;whiteSpace=wrap;html=1;aspect=fixed;fillColor=#e51400;fontColor=#ffffff;strokeColor=#B20000;sketch=1;curveFitting=1;jiggle=2;" parent="1" vertex="1">
          <mxGeometry x="897.5" y="100" width="45" height="45" as="geometry" />
        </mxCell>
        <mxCell id="243QyRulBXpM2tCjIqUp-29" value="" style="rounded=0;whiteSpace=wrap;html=1;strokeWidth=0;sketch=1;curveFitting=1;jiggle=2;" parent="1" vertex="1">
          <mxGeometry x="904.06" y="118.75" width="31.87" height="7.5" as="geometry" />
        </mxCell>
        <mxCell id="243QyRulBXpM2tCjIqUp-33" value="Le middleware bloque la requête " style="text;html=1;strokeColor=none;fillColor=none;align=center;verticalAlign=middle;whiteSpace=wrap;rounded=0;sketch=1;curveFitting=1;jiggle=2;" parent="1" vertex="1">
          <mxGeometry x="970.0000000000001" y="145" width="110" height="30" as="geometry" />
        </mxCell>
        <mxCell id="243QyRulBXpM2tCjIqUp-35" value="Réponse : accès non autorisé" style="text;html=1;strokeColor=none;fillColor=none;align=center;verticalAlign=middle;whiteSpace=wrap;rounded=0;sketch=1;curveFitting=1;jiggle=2;" parent="1" vertex="1">
          <mxGeometry x="717.5" y="170" width="180" height="30" as="geometry" />
        </mxCell>
        <mxCell id="243QyRulBXpM2tCjIqUp-36" value="&lt;div&gt;Connexion avec login + mot de passe&lt;br&gt;&lt;/div&gt;" style="text;html=1;strokeColor=none;fillColor=none;align=center;verticalAlign=middle;whiteSpace=wrap;rounded=0;sketch=1;curveFitting=1;jiggle=2;" parent="1" vertex="1">
          <mxGeometry x="250" y="250" width="210" height="30" as="geometry" />
        </mxCell>
        <mxCell id="243QyRulBXpM2tCjIqUp-38" value="Réponse : token JWT" style="text;html=1;strokeColor=none;fillColor=none;align=center;verticalAlign=middle;whiteSpace=wrap;rounded=0;sketch=1;curveFitting=1;jiggle=2;" parent="1" vertex="1">
          <mxGeometry x="420" y="330" width="125" height="30" as="geometry" />
        </mxCell>
        <mxCell id="243QyRulBXpM2tCjIqUp-43" value="" style="endArrow=none;html=1;rounded=0;entryX=0.5;entryY=1;entryDx=0;entryDy=0;sketch=1;curveFitting=1;jiggle=2;" parent="1" target="243QyRulBXpM2tCjIqUp-42" edge="1">
          <mxGeometry width="50" height="50" relative="1" as="geometry">
            <mxPoint x="920" y="560" as="sourcePoint" />
            <mxPoint x="920" y="240" as="targetPoint" />
          </mxGeometry>
        </mxCell>
        <mxCell id="243QyRulBXpM2tCjIqUp-42" value="" style="rounded=1;whiteSpace=wrap;html=1;fillColor=#fff2cc;strokeColor=#d6b656;sketch=1;curveFitting=1;jiggle=2;" parent="1" vertex="1">
          <mxGeometry x="904.06" y="400" width="30" height="160" as="geometry" />
        </mxCell>
        <mxCell id="243QyRulBXpM2tCjIqUp-45" value="" style="endArrow=none;html=1;rounded=0;entryX=0.5;entryY=1;entryDx=0;entryDy=0;sketch=1;curveFitting=1;jiggle=2;" parent="1" target="243QyRulBXpM2tCjIqUp-44" edge="1">
          <mxGeometry width="50" height="50" relative="1" as="geometry">
            <mxPoint x="1279.5" y="560" as="sourcePoint" />
            <mxPoint x="1280" y="40" as="targetPoint" />
          </mxGeometry>
        </mxCell>
        <mxCell id="243QyRulBXpM2tCjIqUp-44" value="" style="rounded=1;whiteSpace=wrap;html=1;fillColor=#d5e8d4;strokeColor=#82b366;sketch=1;curveFitting=1;jiggle=2;" parent="1" vertex="1">
          <mxGeometry x="1265" y="400" width="30" height="160" as="geometry" />
        </mxCell>
        <mxCell id="243QyRulBXpM2tCjIqUp-46" value="" style="endArrow=none;html=1;rounded=0;entryX=0.5;entryY=1;entryDx=0;entryDy=0;sketch=1;curveFitting=1;jiggle=2;" parent="1" target="243QyRulBXpM2tCjIqUp-42" edge="1">
          <mxGeometry width="50" height="50" relative="1" as="geometry">
            <mxPoint x="919.5" y="590" as="sourcePoint" />
            <mxPoint x="919.5" y="560" as="targetPoint" />
            <Array as="points">
              <mxPoint x="919" y="680" />
            </Array>
          </mxGeometry>
        </mxCell>
        <mxCell id="243QyRulBXpM2tCjIqUp-47" value="" style="endArrow=none;html=1;rounded=0;entryX=0.5;entryY=1;entryDx=0;entryDy=0;sketch=1;curveFitting=1;jiggle=2;" parent="1" edge="1">
          <mxGeometry width="50" height="50" relative="1" as="geometry">
            <mxPoint x="1280" y="590" as="sourcePoint" />
            <mxPoint x="1279.5" y="560" as="targetPoint" />
            <Array as="points">
              <mxPoint x="1280" y="680" />
            </Array>
          </mxGeometry>
        </mxCell>
        <mxCell id="243QyRulBXpM2tCjIqUp-57" value="Le middleware vérifie le JWT " style="text;html=1;strokeColor=none;fillColor=none;align=center;verticalAlign=middle;whiteSpace=wrap;rounded=0;sketch=1;curveFitting=1;jiggle=2;" parent="1" vertex="1">
          <mxGeometry x="970" y="465" width="110" height="30" as="geometry" />
        </mxCell>
        <mxCell id="243QyRulBXpM2tCjIqUp-58" value="&lt;div&gt;Requête vers l&#39;API de gestion avec un token JWT&lt;/div&gt;" style="text;html=1;strokeColor=none;fillColor=none;align=center;verticalAlign=middle;whiteSpace=wrap;rounded=0;sketch=1;curveFitting=1;jiggle=2;" parent="1" vertex="1">
          <mxGeometry x="250" y="410" width="265" height="30" as="geometry" />
        </mxCell>
        <mxCell id="243QyRulBXpM2tCjIqUp-59" value="&lt;div&gt;Réponse de l&#39;API&lt;/div&gt;" style="text;html=1;strokeColor=none;fillColor=none;align=center;verticalAlign=middle;whiteSpace=wrap;rounded=0;sketch=1;curveFitting=1;jiggle=2;" parent="1" vertex="1">
          <mxGeometry x="1150" y="490" width="115" height="30" as="geometry" />
        </mxCell>
        <mxCell id="243QyRulBXpM2tCjIqUp-60" value="&lt;font color=&quot;#000000&quot;&gt;&lt;b&gt;&lt;font style=&quot;font-size: 24px;&quot;&gt;1&lt;/font&gt;&lt;/b&gt;&lt;/font&gt;" style="ellipse;whiteSpace=wrap;html=1;aspect=fixed;fillColor=#0050ef;fontColor=#ffffff;strokeColor=#001DBC;sketch=1;curveFitting=1;jiggle=2;" parent="1" vertex="1">
          <mxGeometry x="220" y="88.75" width="30" height="30" as="geometry" />
        </mxCell>
        <mxCell id="243QyRulBXpM2tCjIqUp-65" value="&lt;font size=&quot;1&quot;&gt;&lt;b style=&quot;font-size: 24px;&quot;&gt;2&lt;/b&gt;&lt;/font&gt;" style="ellipse;whiteSpace=wrap;html=1;aspect=fixed;fillColor=#0050ef;fontColor=#000000;strokeColor=#001DBC;sketch=1;curveFitting=1;jiggle=2;" parent="1" vertex="1">
          <mxGeometry x="942.5" y="145" width="30" height="30" as="geometry" />
        </mxCell>
        <mxCell id="243QyRulBXpM2tCjIqUp-66" value="&lt;font style=&quot;font-size: 24px;&quot;&gt;&lt;b style=&quot;font-size: 24px;&quot;&gt;3&lt;/b&gt;&lt;/font&gt;" style="ellipse;whiteSpace=wrap;html=1;aspect=fixed;fillColor=#0050ef;fontColor=#141414;strokeColor=#001DBC;fontSize=24;sketch=1;curveFitting=1;jiggle=2;" parent="1" vertex="1">
          <mxGeometry x="690" y="170" width="30" height="30" as="geometry" />
        </mxCell>
        <mxCell id="243QyRulBXpM2tCjIqUp-67" value="&lt;b&gt;4&lt;/b&gt;" style="ellipse;whiteSpace=wrap;html=1;aspect=fixed;fillColor=#0050ef;fontColor=#000000;strokeColor=#001DBC;fontSize=24;sketch=1;curveFitting=1;jiggle=2;" parent="1" vertex="1">
          <mxGeometry x="220" y="250" width="30" height="30" as="geometry" />
        </mxCell>
        <mxCell id="243QyRulBXpM2tCjIqUp-68" value="&lt;b&gt;5&lt;/b&gt;" style="ellipse;whiteSpace=wrap;html=1;aspect=fixed;fillColor=#0050ef;fontColor=#000000;strokeColor=#001DBC;fontSize=24;sketch=1;curveFitting=1;jiggle=2;" parent="1" vertex="1">
          <mxGeometry x="390" y="330" width="30" height="30" as="geometry" />
        </mxCell>
        <mxCell id="243QyRulBXpM2tCjIqUp-69" value="&lt;b&gt;6&lt;/b&gt;" style="ellipse;whiteSpace=wrap;html=1;aspect=fixed;fillColor=#0050ef;fontColor=#000000;strokeColor=#001DBC;fontSize=24;sketch=1;curveFitting=1;jiggle=2;" parent="1" vertex="1">
          <mxGeometry x="220" y="410" width="30" height="30" as="geometry" />
        </mxCell>
        <mxCell id="243QyRulBXpM2tCjIqUp-71" value="&lt;font color=&quot;#000000&quot;&gt;&lt;b&gt;7&lt;/b&gt;&lt;/font&gt;" style="ellipse;whiteSpace=wrap;html=1;aspect=fixed;fillColor=#0050ef;fontColor=#ffffff;strokeColor=#001DBC;fontSize=24;sketch=1;curveFitting=1;jiggle=2;" parent="1" vertex="1">
          <mxGeometry x="940" y="465" width="30" height="30" as="geometry" />
        </mxCell>
        <mxCell id="243QyRulBXpM2tCjIqUp-72" value="&lt;b&gt;&lt;font color=&quot;#000000&quot;&gt;8&lt;/font&gt;&lt;/b&gt;" style="ellipse;whiteSpace=wrap;html=1;aspect=fixed;fillColor=#0050ef;fontColor=#ffffff;strokeColor=#001DBC;fontSize=24;sketch=1;curveFitting=1;jiggle=2;" parent="1" vertex="1">
          <mxGeometry x="1130" y="490" width="30" height="30" as="geometry" />
        </mxCell>
        <mxCell id="243QyRulBXpM2tCjIqUp-73" value="" style="ellipse;whiteSpace=wrap;html=1;sketch=1;hachureGap=4;jiggle=2;curveFitting=1;fontFamily=Architects Daughter;fontSource=https%3A%2F%2Ffonts.googleapis.com%2Fcss%3Ffamily%3DArchitects%2BDaughter;fontSize=20;" parent="1" vertex="1">
          <mxGeometry x="900" y="410" width="44.53" height="40" as="geometry" />
        </mxCell>
        <mxCell id="243QyRulBXpM2tCjIqUp-74" value="" style="sketch=1;html=1;aspect=fixed;strokeColor=none;shadow=0;align=center;fillColor=#2D9C5E;verticalAlign=top;labelPosition=center;verticalLabelPosition=bottom;shape=mxgraph.gcp2.check;curveFitting=1;jiggle=2;" parent="1" vertex="1">
          <mxGeometry x="905" y="410" width="37.5" height="30" as="geometry" />
        </mxCell>
        <mxCell id="243QyRulBXpM2tCjIqUp-4" value="" style="rounded=1;whiteSpace=wrap;html=1;fillColor=#f8cecc;strokeColor=#b85450;sketch=1;curveFitting=1;jiggle=2;" parent="1" vertex="1">
          <mxGeometry x="180" y="80" width="30" height="480" as="geometry" />
        </mxCell>
        <mxCell id="Bi5-bl8IuxDmXKODMzO1-2" value="" style="shape=flexArrow;endArrow=classic;html=1;rounded=0;sketch=1;hachureGap=4;jiggle=2;curveFitting=1;fontFamily=Architects Daughter;fontSource=https%3A%2F%2Ffonts.googleapis.com%2Fcss%3Ffamily%3DArchitects%2BDaughter;fontSize=16;exitX=0;exitY=0.75;exitDx=0;exitDy=0;entryX=1;entryY=0.25;entryDx=0;entryDy=0;" edge="1" parent="1" source="243QyRulBXpM2tCjIqUp-23" target="243QyRulBXpM2tCjIqUp-4">
          <mxGeometry width="50" height="50" relative="1" as="geometry">
            <mxPoint x="224" y="240" as="sourcePoint" />
            <mxPoint x="1295" y="230" as="targetPoint" />
          </mxGeometry>
        </mxCell>
        <mxCell id="Bi5-bl8IuxDmXKODMzO1-3" value="" style="shape=flexArrow;endArrow=classic;html=1;rounded=0;sketch=1;hachureGap=4;jiggle=2;curveFitting=1;fontFamily=Architects Daughter;fontSource=https%3A%2F%2Ffonts.googleapis.com%2Fcss%3Ffamily%3DArchitects%2BDaughter;fontSize=16;exitX=0;exitY=0.75;exitDx=0;exitDy=0;" edge="1" parent="1">
          <mxGeometry width="50" height="50" relative="1" as="geometry">
            <mxPoint x="210" y="280" as="sourcePoint" />
            <mxPoint x="540" y="280" as="targetPoint" />
          </mxGeometry>
        </mxCell>
        <mxCell id="Bi5-bl8IuxDmXKODMzO1-4" value="" style="shape=flexArrow;endArrow=classic;html=1;rounded=0;sketch=1;hachureGap=4;jiggle=2;curveFitting=1;fontFamily=Architects Daughter;fontSource=https%3A%2F%2Ffonts.googleapis.com%2Fcss%3Ffamily%3DArchitects%2BDaughter;fontSize=16;exitX=1;exitY=1;exitDx=0;exitDy=0;entryX=1;entryY=0.583;entryDx=0;entryDy=0;entryPerimeter=0;" edge="1" parent="1" source="243QyRulBXpM2tCjIqUp-38" target="243QyRulBXpM2tCjIqUp-4">
          <mxGeometry width="50" height="50" relative="1" as="geometry">
            <mxPoint x="220" y="319.5" as="sourcePoint" />
            <mxPoint x="550" y="319.5" as="targetPoint" />
          </mxGeometry>
        </mxCell>
      </root>
    </mxGraphModel>
  </diagram>
</mxfile>
